<svg xmlns="http://www.w3.org/2000/svg" xmlns:xlink="http://www.w3.org/1999/xlink" fill="none" version="1.1" width="24" height="24" viewBox="0 0 24 24"><g style="mix-blend-mode:passthrough"><g><g style="mix-blend-mode:passthrough"><path d="M11.26172,22.1345C11.26172,22.1345,4,16.0183,4,10C4,5.58172,7.58172,2,12,2C16.418300000000002,2,20,5.58172,20,10C20,16.0183,12.73828,22.1345,12.73828,22.1345C12.33356,22.506,11.66946,22.502,11.26172,22.1345ZM13.03279,20.2279C12.74727,20.5078,12.48288,20.7558,12.24679,20.9686C12.13646,21.0681,12.05298,21.1414,11.99995,21.187C11.94692,21.1414,11.86344,21.0681,11.75311,20.9686C11.517019999999999,20.7558,11.25263,20.5078,10.96711,20.2279C10.14932,19.4261,9.33106,18.5335,8.56978,17.576900000000002C6.530609999999999,15.0144,5.28856,12.4871,5.20446,10.23968C5.20146,10.15933,5.19995,10.07944,5.19995,10C5.19995,6.24446,8.24441,3.2,11.99995,3.2C15.7555,3.2,18.8,6.24446,18.8,10C18.8,10.07944,18.7985,10.15933,18.7955,10.23968C18.711399999999998,12.4871,17.4693,15.0144,15.4302,17.576900000000002C14.6688,18.5335,13.85058,19.4261,13.03279,20.2279ZM8,10C8,12.2091,9.79086,14,12,14C14.2091,14,16,12.2091,16,10C16,7.79086,14.2091,6,12,6C9.79086,6,8,7.79086,8,10ZM11.99995,12.8C13.54635,12.8,14.8,11.5464,14.8,10C14.8,8.4536,13.54635,7.2,11.99995,7.2C10.45355,7.2,9.199950000000001,8.4536,9.199950000000001,10C9.199950000000001,11.5464,10.45355,12.8,11.99995,12.8ZM12.06518,21.2432C12.063,21.2412,12.06084,21.2393,12.05872,21.2375L12.06518,21.2432Z" fill-rule="evenodd" fill="#000000" fill-opacity="0.8999999761581421"/></g></g></g></svg>