<svg xmlns="http://www.w3.org/2000/svg" xmlns:xlink="http://www.w3.org/1999/xlink" fill="none" version="1.1" width="24" height="24" viewBox="0 0 24 24"><g style="mix-blend-mode:passthrough"><g><g style="mix-blend-mode:passthrough"><path d="M12,22C6.47715,22,2,17.5228,2,12C2,6.47715,6.47715,2,12,2C17.5228,2,22,6.47715,22,12C22,17.5228,17.5228,22,12,22ZM11.99995,20.8C16.8601,20.8,20.8,16.8601,20.8,11.99995C20.8,7.13984,16.8601,3.1999500000000003,11.99995,3.1999500000000003C7.13984,3.1999500000000003,3.1999500000000003,7.13984,3.1999500000000003,11.99995C3.1999500000000003,16.8601,7.13984,20.8,11.99995,20.8ZM11.42871,13.4917L11.34082,6.43115L12.6592,6.43115L12.5713,13.4917L11.42871,13.4917ZM12,17.0732C11.53125,17.0732,11.16504,16.707,11.16504,16.238300000000002C11.16504,15.7622,11.53125,15.4033,12,15.4033C12.4761,15.4033,12.835,15.7622,12.835,16.238300000000002C12.835,16.707,12.4761,17.0732,12,17.0732Z" fill-rule="evenodd" fill="#FA5151" fill-opacity="1"/></g></g></g></svg>