<svg xmlns="http://www.w3.org/2000/svg" xmlns:xlink="http://www.w3.org/1999/xlink" fill="none" version="1.1" width="20" height="16" viewBox="0 0 20 16"><g style="mix-blend-mode:passthrough"><path d="M2,2L6,2L6,0L1,0C0.447715,0,0,0.447715,0,1L0,5L2,5L2,2ZM14,2L18,2L18,5L20,5L20,1C20,0.447715,19.5523,0,19,0L14,0L14,2ZM14.2426,4.17163L15.6569,5.58584L9.2929,11.9498C8.90237,12.3403,8.26921,12.3403,7.87868,11.9498L7.17158,11.2427L7.1716,11.2427L4.34314,8.41421L5.75735,7L8.58582,9.82846L14.2426,4.17163ZM6,14L2,14L2,11L0,11L0,15C0,15.5523,0.447715,16,1,16L6,16L6,14ZM14,14L18,14L18,11L20,11L20,15C20,15.5523,19.5523,16,19,16L14,16L14,14Z" fill-rule="evenodd" fill="#000000" fill-opacity="0.8999999761581421"/></g></svg>